<?xml version="1.0" standalone="no"?>
<!DOCTYPE svg PUBLIC "-//W3C//DTD SVG 20010904//EN"
 "http://www.w3.org/TR/2001/REC-SVG-20010904/DTD/svg10.dtd">
<svg version="1.0" xmlns="http://www.w3.org/2000/svg"
 width="138.000000pt" height="24.000000pt" viewBox="0 0 138.000000 24.000000"
 preserveAspectRatio="xMidYMid meet">

<g transform="translate(0.000000,24.000000) scale(0.100000,-0.100000)"
fill="#000000" stroke="none">
<path d="M6 195 c-3 -9 -6 -45 -6 -80 0 -76 10 -85 92 -85 81 0 90 11 86 100
l-3 75 -81 3 c-68 2 -83 0 -88 -13z m60 -94 c-14 -14 -29 -21 -33 -17 -4 4 1
14 11 22 18 13 18 15 3 32 -25 27 -7 36 20 10 l24 -22 -25 -25z m77 -18 c-7
-2 -21 -2 -30 0 -10 3 -4 5 12 5 17 0 24 -2 18 -5z"/>
<path d="M380 190 c0 -5 5 -10 10 -10 6 0 10 5 10 10 0 6 -4 10 -10 10 -5 0
-10 -4 -10 -10z"/>
<path d="M550 190 c0 -5 7 -10 16 -10 8 0 12 5 9 10 -3 6 -10 10 -16 10 -5 0
-9 -4 -9 -10z"/>
<path d="M240 120 l0 -70 33 0 c50 0 77 24 77 70 0 49 -21 70 -71 70 l-39 0 0
-70z m84 34 c18 -46 -1 -84 -41 -84 -21 0 -23 4 -23 50 0 48 1 50 29 50 17 0
31 -6 35 -16z"/>
<path d="M790 120 c0 -40 4 -70 10 -70 6 0 10 30 10 70 0 40 -4 70 -10 70 -6
0 -10 -30 -10 -70z"/>
<path d="M891 172 c-13 -25 3 -49 39 -57 21 -5 30 -13 30 -26 0 -22 -38 -27
-58 -7 -6 6 -15 8 -19 4 -11 -11 26 -36 53 -36 26 0 54 24 54 47 0 8 -18 22
-40 30 -22 9 -40 22 -40 28 0 19 30 27 47 14 15 -13 28 -6 18 10 -11 18 -73
13 -84 -7z"/>
<path d="M602 160 c-7 -12 -8 -20 -2 -20 5 0 10 -18 10 -40 0 -39 21 -64 38
-45 4 4 1 10 -5 12 -17 6 -17 70 -1 75 9 3 8 9 -4 21 -21 21 -21 21 -36 -3z"/>
<path d="M1010 163 c-10 -12 -11 -18 -2 -21 7 -2 12 -21 12 -43 0 -38 21 -62
38 -44 4 4 1 10 -5 12 -17 6 -17 70 -1 75 9 3 8 9 -4 21 -20 20 -19 20 -38 0z"/>
<path d="M380 105 c0 -30 5 -55 10 -55 6 0 10 25 10 55 0 30 -4 55 -10 55 -5
0 -10 -25 -10 -55z"/>
<path d="M441 147 c-6 -6 -11 -26 -11 -44 0 -38 31 -63 56 -42 11 9 14 8 14
-9 0 -24 -18 -33 -42 -21 -10 6 -19 5 -23 -1 -7 -11 35 -23 62 -18 15 3 18 15
21 74 l3 70 -35 1 c-19 1 -39 -4 -45 -10z m54 -42 c0 -23 -4 -30 -20 -30 -21
0 -31 25 -21 51 11 28 41 12 41 -21z"/>
<path d="M550 105 c0 -30 5 -55 10 -55 6 0 10 25 10 55 0 30 -4 55 -10 55 -5
0 -10 -25 -10 -55z"/>
<path d="M693 153 c-22 -8 -14 -22 11 -20 36 3 36 -17 0 -23 -23 -4 -29 -10
-29 -30 0 -23 4 -25 43 -26 l42 -2 0 42 c0 57 -23 77 -67 59z m47 -62 c0 -5
-6 -13 -13 -19 -15 -13 -42 1 -33 17 8 13 46 15 46 2z"/>
<path d="M1096 144 c-35 -35 -11 -94 38 -94 41 0 61 64 28 93 -23 21 -46 22
-66 1z m59 -23 c8 -26 -4 -51 -25 -51 -25 0 -33 16 -26 46 8 29 42 33 51 5z"/>
<path d="M1200 105 c0 -30 5 -55 10 -55 6 0 10 15 10 34 0 25 7 39 22 50 12 9
19 19 15 22 -4 4 -13 1 -22 -6 -10 -8 -15 -9 -15 -1 0 6 -4 11 -10 11 -5 0
-10 -25 -10 -55z"/>
<path d="M1287 142 c-35 -38 -8 -96 41 -90 38 5 39 26 1 25 -18 -1 -34 4 -36
11 -3 8 8 12 36 12 45 0 48 5 25 38 -18 27 -45 28 -67 4z m53 -17 c0 -9 -9
-15 -25 -15 -24 0 -32 10 -18 23 12 13 43 7 43 -8z"/>
</g>
</svg>
