<?xml version="1.0" encoding="UTF-8"?>
<svg version="1.1" xmlns="http://www.w3.org/2000/svg" width="33" height="33">
<path d="M0 0 C1.29292969 -0.00257812 2.58585938 -0.00515625 3.91796875 -0.0078125 C4.59263184 -0.00362305 5.26729492 0.00056641 5.96240234 0.00488281 C8.02341157 0.0155843 10.08354919 0.00498557 12.14453125 -0.0078125 C13.43746094 -0.00523438 14.73039062 -0.00265625 16.0625 0 C17.25423828 0.00225586 18.44597656 0.00451172 19.67382812 0.00683594 C22.53125 0.265625 22.53125 0.265625 24.53125 2.265625 C24.79003906 5.12304688 24.79003906 5.12304688 24.796875 8.734375 C24.80074219 10.67376953 24.80074219 10.67376953 24.8046875 12.65234375 C24.79840332 13.66433838 24.79840332 13.66433838 24.79199219 14.69677734 C24.7812907 16.75778657 24.79188943 18.81792419 24.8046875 20.87890625 C24.80210938 22.17183594 24.79953125 23.46476562 24.796875 24.796875 C24.79461914 25.98861328 24.79236328 27.18035156 24.79003906 28.40820312 C24.53125 31.265625 24.53125 31.265625 22.53125 33.265625 C19.78149414 33.52441406 19.78149414 33.52441406 16.31640625 33.53125 C14.45145508 33.53511719 14.45145508 33.53511719 12.54882812 33.5390625 C10.59106445 33.52746094 10.59106445 33.52746094 8.59375 33.515625 C6.64178711 33.52722656 6.64178711 33.52722656 4.65039062 33.5390625 C2.78350586 33.53519531 2.78350586 33.53519531 0.87890625 33.53125 C-0.26570068 33.52899414 -1.41030762 33.52673828 -2.58959961 33.52441406 C-5.46875 33.265625 -5.46875 33.265625 -8.46875 31.265625 C-8.84106445 28.40820312 -8.84106445 28.40820312 -8.83203125 24.796875 C-8.83138672 23.50394531 -8.83074219 22.21101563 -8.83007812 20.87890625 C-8.82177979 20.20424316 -8.81348145 19.52958008 -8.80493164 18.83447266 C-8.7813386 16.77336549 -8.78436974 14.7135516 -8.79101562 12.65234375 C-8.7217264 0.01650949 -8.7217264 0.01650949 0 0 Z M-1.46875 10.265625 C-0.788125 11.008125 -0.1075 11.750625 0.59375 12.515625 C2.53125 15.265625 2.53125 15.265625 2.46875 17.328125 C1.39517534 19.54684596 0.09356572 21.36367543 -1.46875 23.265625 C2.95014613 21.91540674 4.87470343 20.00446832 7.53125 16.265625 C6.60338211 15.25668128 5.66356567 14.25871593 4.71875 13.265625 C4.19667969 12.70875 3.67460937 12.151875 3.13671875 11.578125 C1.48976033 9.94916 1.48976033 9.94916 -1.46875 10.265625 Z M11.53125 23.265625 C11.53125 23.595625 11.53125 23.925625 11.53125 24.265625 C13.84125 24.265625 16.15125 24.265625 18.53125 24.265625 C18.53125 23.935625 18.53125 23.605625 18.53125 23.265625 C16.22125 23.265625 13.91125 23.265625 11.53125 23.265625 Z " fill="#C92070" transform="translate(8.46875,-0.265625)"/>
</svg>
